# xmcd
#
# Track frame offsets:
#	150
#	22497
#	32765
#	44061
#	55154
#	69681
#	81111
#	92054
#	108206
#	126579
#	144323
#	156489
#	175383
#	194030
#	210705
#
# Disc length: 3031 seconds
#
# Revision: 1
# Processed by: cddbd v1.5.1PL2 Copyright (c) Steve Scherf et al.
# Submitted via: audiograbber 1.83.01
#
DISCID=ea0bd50f
DTITLE=Booker T. and The MGs - Stax Profiles
DYEAR=2006
DGENRE=
TTITLE0=Tight Is Tight
TTITLE1=Burnt Biscuits
TTITLE2=Jellybread
TTITLE3=Chinese Checkers
TTITLE4=Boot-Leg (Live)
TTITLE5=Heads Or Tails
TTITLE6=Hip Hug-Her
TTITLE7=Lady Madonna
TTITLE8=Over Easy
TTITLE9=Hang 'Em High
TTITLE10=Soul Clap '69
TTITLE11=Something
TTITLE12=Sunday Sermon
TTITLE13=Green Onions (Live)
TTITLE14=Fuquawi
EXTD=
EXTT0=
EXTT1=
EXTT2=
EXTT3=
EXTT4=
EXTT5=
EXTT6=
EXTT7=
EXTT8=
EXTT9=
EXTT10=
EXTT11=
EXTT12=
EXTT13=
EXTT14=
PLAYORDER=
